<svg width="433" height="112" viewBox="0 0 433 112" fill="none" xmlns="http://www.w3.org/2000/svg">
<g clip-path="url(#clip0_4021_291)">
<path d="M48.5218 0C21.7285 0 0 21.7879 0 48.6542V59.9449C0 59.9449 7.37098 59.9449 11.5991 59.9449C16.2116 59.9449 17.93 59.9449 24.2609 59.9449C30.1396 59.9449 31.5188 59.9449 36.0183 59.9449C40.7891 59.9449 48.5218 59.9449 48.5218 59.9449H61.0253H72.7827H85.4445H97.0436V48.6542C97.0436 21.7879 75.3377 0 48.5218 0Z" fill="#D21F3C"/>
<path d="M0.0227051 72.7773L11.7575 71.8704V60.3077L0.0227051 61.2146V72.7773Z" fill="#D21F3C"/>
<path d="M0.0227051 83.8867L11.7575 81.3927V72.7773L0.0227051 75.2713V83.8867Z" fill="#D21F3C"/>
<path d="M0.0227051 98.1701L11.7575 92.0486V83.8867L0.0227051 90.0081V98.1701Z" fill="#D21F3C"/>
<path d="M0.0227051 112L11.7575 102.024V96.1295L0.0227051 105.879V112Z" fill="#D21F3C"/>
<path d="M12.187 112L23.9218 102.024V96.1295L12.187 105.879V112Z" fill="#D21F3C"/>
<path d="M12.187 98.1701L23.9218 92.0486V83.8867L12.187 90.0081V98.1701Z" fill="#D21F3C"/>
<path d="M12.187 83.8867L23.9218 81.3927V72.7773L12.187 75.2713V83.8867Z" fill="#D21F3C"/>
<path d="M12.187 72.7773L23.9218 71.8704V60.3077L12.187 61.2146V72.7773Z" fill="#D21F3C"/>
<path d="M24.3513 112L36.0861 102.024V96.1295L24.3513 105.879V112Z" fill="#D21F3C"/>
<path d="M24.3513 98.1701L36.0861 92.0486V83.8867L24.3513 90.0081V98.1701Z" fill="#D21F3C"/>
<path d="M24.3513 83.8867L36.0861 81.3927V72.7773L24.3513 75.2713V83.8867Z" fill="#D21F3C"/>
<path d="M24.3513 72.7773L36.0861 71.8704V60.3077L24.3513 61.2146V72.7773Z" fill="#D21F3C"/>
<path d="M36.5156 112L48.2278 102.024V96.1295L36.5156 105.879V112Z" fill="#D21F3C"/>
<path d="M36.5156 98.1701L48.2278 92.0486V83.8867L36.5156 90.0081V98.1701Z" fill="#D21F3C"/>
<path d="M36.5156 83.8867L48.2278 81.3927V72.7773L36.5156 75.2713V83.8867Z" fill="#D21F3C"/>
<path d="M36.5156 72.7773L48.2278 71.8704V60.3077L36.5156 61.2146V72.7773Z" fill="#D21F3C"/>
<path d="M85.3088 71.8704L97.0436 72.7773V61.2146L85.3088 60.3077V71.8704Z" fill="#D21F3C"/>
<path d="M85.3088 81.3927L97.0436 83.8867V75.2713L85.3088 72.7773V81.3927Z" fill="#D21F3C"/>
<path d="M85.3088 92.0486L97.0436 98.1701V90.0081L85.3088 83.8867V92.0486Z" fill="#D21F3C"/>
<path d="M85.3088 102.024L97.0436 112V105.879L85.3088 96.1295V102.024Z" fill="#D21F3C"/>
<path d="M73.1445 102.024L84.8793 112V105.879L73.1445 96.1295V102.024Z" fill="#D21F3C"/>
<path d="M73.1445 92.0486L84.8793 98.1701V90.0081L73.1445 83.8867V92.0486Z" fill="#D21F3C"/>
<path d="M73.1445 81.3927L84.8793 83.8867V75.2713L73.1445 72.7773V81.3927Z" fill="#D21F3C"/>
<path d="M73.1445 71.8704L84.8793 72.7773V61.2146L73.1445 60.3077V71.8704Z" fill="#D21F3C"/>
<path d="M60.9802 102.024L72.715 112V105.879L60.9802 96.1295V102.024Z" fill="#D21F3C"/>
<path d="M60.9802 92.0486L72.715 98.1701V90.0081L60.9802 83.8867V92.0486Z" fill="#D21F3C"/>
<path d="M60.9802 81.3927L72.715 83.8867V75.2713L60.9802 72.7773V81.3927Z" fill="#D21F3C"/>
<path d="M60.9802 71.8704L72.715 72.7773V61.2146L60.9802 60.3077V71.8704Z" fill="#D21F3C"/>
<path d="M48.8384 102.024L60.5505 112V105.879L48.8384 96.1295V102.024Z" fill="#D21F3C"/>
<path d="M48.8384 92.0486L60.5505 98.1701V90.0081L48.8384 83.8867V92.0486Z" fill="#D21F3C"/>
<path d="M48.8384 81.3927L60.5505 83.8867V75.2713L48.8384 72.7773V81.3927Z" fill="#D21F3C"/>
<path d="M48.8384 71.8704L60.5505 72.7773V61.2146L48.8384 60.3077V71.8704Z" fill="#D21F3C"/>
<path d="M154.052 33.4545H134.76L119.238 47.1273V78.9818H154.052C167.18 78.9818 177.769 68.8 177.769 56.2182C177.769 43.6364 167.108 33.4545 154.052 33.4545ZM153.037 65.5273H134.76V46.9091H153.037C158.187 46.9091 162.321 51.0546 162.321 56.2182C162.321 61.3818 158.114 65.5273 153.037 65.5273Z" fill="black"/>
<path d="M195.177 33.4545H179.655V78.9818H195.177V33.4545Z" fill="black"/>
<path d="M243.771 51.4909H214.687C213.454 51.4909 212.439 50.4727 212.439 49.2364C212.439 48 213.454 46.9818 214.687 46.9818H246.817L257.117 33.5273H212.148C204.098 33.5273 197.57 39.7091 197.57 47.2727C197.57 54.8363 204.098 61.0182 212.148 61.0182H240.943C242.176 61.0182 243.191 62.0363 243.191 63.2727C243.191 64.5091 242.176 65.5273 240.943 65.5273H207.071L196.772 78.9818H243.771C251.822 78.9818 258.35 72.8 258.35 65.2364C258.35 57.6 251.822 51.4909 243.771 51.4909Z" fill="black"/>
<path d="M301.142 51.4909H272.058C270.825 51.4909 269.809 50.4727 269.809 49.2364C269.809 48 270.825 46.9818 272.058 46.9818H304.188L314.487 33.5273H269.519C261.468 33.5273 254.941 39.7091 254.941 47.2727C254.941 54.8363 261.468 61.0182 269.519 61.0182H298.313C299.546 61.0182 300.562 62.0363 300.562 63.2727C300.562 64.5091 299.546 65.5273 298.313 65.5273H264.442L254.143 78.9818H301.142C309.193 78.9818 315.72 72.8 315.72 65.2364C315.72 57.6 309.193 51.4909 301.142 51.4909Z" fill="black"/>
<path d="M361.849 61.8909C361.849 64.3636 355.394 67.0545 347.416 67.0545C339.437 67.0545 332.982 64.2909 332.982 61.8909V33.4545H317.461V62.6182C317.461 62.8364 317.461 63.7818 317.461 64C318.114 72.7273 331.242 79.7091 347.416 79.7091C363.59 79.7091 376.79 72.7273 377.37 64C377.37 63.7818 377.37 62.8364 377.37 62.6182V33.4545H361.849V61.8909Z" fill="black"/>
<path d="M419.365 33.4545V57.8909L417.261 56.0727L393.181 35.4909L392.239 34.6909C391.006 33.6 389.41 32.8727 387.742 32.7273C387.524 32.7273 387.379 32.7273 387.162 32.7273C384.986 32.7273 383.027 33.6 381.577 35.0545C380.126 36.5091 379.256 38.4727 379.256 40.6546V78.9091H393.399V54.9091L395.14 56.3636L419.872 77.5273L420.235 77.8182C421.613 78.9091 423.281 79.5636 425.167 79.5636C427.343 79.5636 429.301 78.6909 430.752 77.2364C432.202 75.7818 433.073 73.8182 433.073 71.6364V45.3818L419.365 33.4545Z" fill="black"/>
</g>
<defs>
<clipPath id="clip0_4021_291">
<rect width="433" height="112" fill="white"/>
</clipPath>
</defs>
</svg>
